<?xml version="1.0" encoding="UTF-8"?>
<svg version="1.1" xmlns="http://www.w3.org/2000/svg" width="176" height="176">
<path d="M0 0 C1.7634375 -0.00773437 1.7634375 -0.00773437 3.5625 -0.015625 C7.03201724 0.25247406 9.7447848 1.06796441 13 2.25 C17.43920874 2.61238439 21.46138962 2.01705089 25.81640625 1.25390625 C33.19093041 0.10432234 40.42146971 -0.09486113 47.875 -0.0625 C49.18968262 -0.05831055 50.50436523 -0.05412109 51.85888672 -0.04980469 C73.80379009 0.20596976 73.80379009 0.20596976 80.3046875 4.921875 C82.6295224 8.11450541 82.98294311 10.31412187 83 14.25 C81.453125 17.13671875 81.453125 17.13671875 79.25 19.9375 C73.20267438 28.44188262 71.0592215 36.82366731 72.2890625 47.22265625 C74.53535688 56.78792077 79.917786 65.60880497 88.09375 71.1171875 C96.77807749 76.27795589 106.80088476 77.3455858 116.5859375 75.046875 C122.00022548 73.25963431 126.61062261 70.30592681 131.125 66.875 C134 65.25 134 65.25 137.625 65.25 C141.39746195 66.3677665 142.54911923 67.24025155 145 70.25 C148.39078393 79.76225575 148.43591864 89.83533722 148.3125 99.8125 C148.31572266 101.11896484 148.31894531 102.42542969 148.32226562 103.77148438 C148.2816629 111.17963608 147.73700525 118.26059405 146.45092773 125.55834961 C145.75143876 129.73369664 145.24207558 133.52060897 146.984375 137.49609375 C149.84683745 145.25777079 148.90108902 154.41882821 145.5 161.8125 C142.51268386 167.0420605 139.22405353 170.31340186 134 173.25 C132.96875 173.86875 131.9375 174.4875 130.875 175.125 C124.65683847 177.55194988 116.17127827 177.32734358 109.94140625 175.2109375 C106.64749274 174.13483826 104.42638239 174.19220086 101 174.5625 C100.01 174.66175781 99.02 174.76101562 98 174.86328125 C96.07069841 175.11198028 94.1465198 175.40710905 92.23339844 175.75927734 C63.36756981 180.14015287 33.65929133 174.18619576 9.9375 157 C-10.73125289 141.0165214 -23.15448812 118.97784407 -27.61181641 93.39550781 C-28.29404148 87.86733936 -28.29569493 82.34399228 -28.26074219 76.77978516 C-28.2500139 74.75262558 -28.26070364 72.72635177 -28.2734375 70.69921875 C-28.2598558 63.77934016 -27.913709 57.25644882 -26.453125 50.48364258 C-25.58777105 46.21795117 -25.53367294 42.5694095 -26.984375 38.46484375 C-29.48947937 30.53522493 -28.99138676 22.36364951 -25.5625 14.8125 C-21.87997879 8.2919128 -17.08964973 3.92405992 -10.15625 1.0859375 C-6.65360483 0.15825673 -3.62029896 -0.0158785 0 0 Z M-7 19.25 C-10.34156326 22.24883882 -10.94544858 23.67721008 -11.375 28.1875 C-11.24834474 30.80828955 -10.89272833 32.55170157 -10 35.0625 C-8.01960226 41.37501778 -8.62500781 47.89806448 -9.9375 54.3125 C-14.70684948 78.43374234 -11.27899472 103.35551556 2 124.25 C4.49476653 127.75349856 7.15137839 131.02957035 10 134.25 C10.77730469 135.16845703 10.77730469 135.16845703 11.5703125 136.10546875 C26.05592392 152.0105245 48.53853327 158.98989553 69.37524414 160.18432617 C78.47311665 160.5109059 87.76812575 159.55096061 96.67578125 157.69140625 C103.40980516 156.41250759 109.59215061 156.97165355 116 159.25 C120.67508604 159.99915172 123.27180109 159.69501044 127.375 157.1875 C130.45856776 153.73684084 131.46344608 151.84903364 132 147.25 C131.3895695 144.99610279 130.57672897 142.8732081 129.74609375 140.69140625 C127.85233136 134.4945398 128.78416195 128.01472256 129.9375 121.75 C130.92946235 116.33671977 131.38251573 110.98653435 131.6875 105.5 C131.73575928 104.70787109 131.78401855 103.91574219 131.83374023 103.09960938 C132.08555719 98.010032 131.76506299 93.28906151 131 88.25 C130.22140625 88.53875 129.4428125 88.8275 128.640625 89.125 C115.78935876 93.3890146 99.6437902 95.14895141 87 89.25 C85.65421875 88.62931641 85.65421875 88.62931641 84.28125 87.99609375 C71.34203088 81.47316323 62.65159236 72.03147674 57.625 58.375 C53.42875367 44.3573668 54.94437875 30.80825699 60 17.25 C47.65588742 15.90270748 36.01791291 16.68645466 23.80078125 18.8046875 C17.1749189 19.85817189 11.10020032 19.81798274 4.75 17.5625 C-0.34401019 15.85641087 -2.4762835 16.35482144 -7 19.25 Z " fill="#DCDB2D" transform="translate(28,-0.25)"/>
<path d="M0 0 C2.9375 2.0625 2.9375 2.0625 5 5 C5 8.54361243 4.65850044 10.86591591 2.875 13.9375 C-0.14771101 15.65036957 -2.60585305 15.35727863 -6 15 C-8.86282301 13.5685885 -9.73782253 12.64670442 -10.9375 9.6875 C-11.0210371 6.09540453 -9.85920856 4.02982135 -8 1 C-5.11138291 -0.44430855 -3.20352299 -0.37688506 0 0 Z " fill="#DCDB2D" transform="translate(88,132)"/>
<path d="M0 0 C2.5881216 2.25417042 2.94242643 3.60520979 3.4375 7 C2.89789419 10.70015415 1.95976712 11.78017466 -1 14 C-3.69061839 15.21511798 -4.75917853 15.06880614 -7.625 14.25 C-10 13 -10 13 -12 10 C-12.4375 6.5625 -12.4375 6.5625 -12 3 C-8.33340589 -1.4443565 -5.38867153 -1.59664341 0 0 Z " fill="#DCDB2D" transform="translate(96,111)"/>
<path d="M0 0 C2.5625 2.0625 2.5625 2.0625 4 5 C4 8.80284671 3.7968187 11.01930006 1.375 14 C-2.08383253 15.45635054 -4.41298371 14.91305869 -8 14 C-9.9375 12.9375 -9.9375 12.9375 -11 11 C-11.52776637 7.43943533 -11.62903915 4.25807831 -10 1 C-6.71960404 -0.64019798 -3.52085131 -0.74234817 0 0 Z " fill="#DCDB2D" transform="translate(71,116)"/>
<path d="M0 0 C2.375 1.5625 2.375 1.5625 4 4 C4.56288002 7.94016013 4.60396028 10.05782196 2.4375 13.4375 C-0.96719488 15.61999672 -3.03430012 15.63734462 -7 15 C-9.5 12.9375 -9.5 12.9375 -11 10 C-11 6.1862249 -10.84985071 3.97575452 -8.3125 1.0625 C-5.26397123 -0.33817538 -3.32073048 -0.4842732 0 0 Z " fill="#DCDB2D" transform="translate(110,128)"/>
</svg>
