<?xml version="1.0" standalone="no"?>
<!DOCTYPE svg PUBLIC "-//W3C//DTD SVG 20010904//EN"
 "http://www.w3.org/TR/2001/REC-SVG-20010904/DTD/svg10.dtd">
<svg version="1.0" xmlns="http://www.w3.org/2000/svg"
 width="331.000000pt" height="331.000000pt" viewBox="0 0 331.000000 331.000000"
 preserveAspectRatio="xMidYMid meet">
<metadata>
Created by potrace 1.14, written by Peter Selinger 2001-2017
</metadata>
<g transform="translate(0.000000,331.000000) scale(0.100000,-0.100000)"
fill="#000000" stroke="none">
<path d="M2244 3176 c-96 -19 -154 -71 -213 -190 -19 -37 -35 -82 -35 -99 -1
-18 -6 -39 -11 -47 -11 -17 -11 -21 -20 -160 -14 -207 1 -385 41 -494 29 -78
29 -78 -27 -131 -78 -73 -174 -170 -254 -257 l-70 -76 -87 10 c-103 12 -172 4
-199 -23 -25 -25 -25 -93 0 -162 10 -28 35 -95 54 -148 l36 -97 -42 -30 c-112
-82 -257 -257 -257 -311 0 -23 120 -148 191 -198 68 -48 196 -111 243 -118 23
-4 55 -13 71 -20 17 -7 38 -15 48 -19 15 -5 17 -19 17 -113 -1 -68 4 -125 13
-155 24 -77 82 -147 122 -148 62 -1 220 63 386 155 85 47 99 46 250 -35 202
-109 369 -149 722 -175 l87 -6 0 39 0 39 -92 6 c-114 8 -264 31 -338 52 -30 8
-80 20 -110 26 -91 18 -264 108 -360 188 -46 39 -89 71 -95 71 -13 0 -106 121
-127 165 -37 74 -54 231 -43 380 4 53 9 95 10 93 2 -2 6 -26 8 -53 7 -84 37
-163 82 -210 36 -39 39 -47 34 -84 -4 -35 -3 -39 11 -31 9 5 27 24 40 43 23
34 24 34 44 15 13 -12 21 -33 22 -54 1 -44 9 -51 33 -30 19 17 23 16 93 -18
46 -22 102 -40 153 -48 49 -7 94 -21 115 -35 20 -13 63 -28 95 -34 88 -16 105
-36 105 -123 0 -102 27 -136 155 -192 66 -29 165 -41 165 -20 0 9 -12 18 -27
21 -108 22 -193 62 -223 105 -11 16 -22 53 -26 91 -6 60 -5 67 21 97 15 18 33
32 40 32 7 0 36 8 65 17 47 15 55 15 79 2 21 -12 26 -23 28 -54 2 -53 13 -105
23 -105 14 0 20 43 20 139 l0 94 -77 -6 c-43 -3 -118 -15 -168 -27 -95 -23
-174 -27 -201 -12 -13 7 -6 11 27 16 96 15 242 120 299 214 11 18 28 32 39 32
12 0 28 16 44 43 21 36 26 60 32 168 4 77 3 133 -2 145 -6 10 -13 36 -16 56
-4 29 -3 36 9 31 12 -4 14 93 14 696 l0 701 -82 -1 c-46 0 -116 -4 -157 -8
l-73 -7 -64 57 c-34 32 -117 90 -184 131 -67 40 -160 96 -208 125 -58 35 -109
57 -155 67 -38 9 -72 16 -76 15 -3 -1 -33 -6 -67 -13z m191 -145 c22 -12 81
-43 130 -69 50 -26 125 -74 167 -107 42 -33 99 -76 127 -95 53 -37 57 -44 41
-84 -8 -21 -16 -26 -45 -26 -39 0 -83 -19 -104 -44 -8 -9 -41 -30 -74 -47 -34
-17 -72 -39 -85 -50 -14 -10 -30 -19 -36 -19 -6 0 -28 -15 -49 -33 -21 -17
-50 -42 -65 -53 -15 -12 -37 -41 -49 -65 -37 -74 -183 -200 -234 -203 -27 -1
-32 4 -54 59 -39 93 -57 272 -44 440 20 264 76 397 176 415 68 12 155 3 198
-19z m509 -863 c12 -17 16 -48 16 -118 0 -54 7 -122 15 -154 9 -33 13 -62 10
-65 -4 -3 -41 6 -83 21 -110 38 -128 41 -212 40 -69 -2 -106 -8 -152 -27 -12
-5 -18 -3 -18 6 0 21 61 52 95 50 44 -3 83 31 96 85 8 31 22 52 48 73 43 34
64 29 125 -34 l39 -40 -7 45 c-4 28 -17 55 -33 72 -15 15 -25 29 -22 31 18 15
55 37 61 37 4 0 14 -10 22 -22z m-934 -258 c0 -5 -4 -10 -10 -10 -5 0 -10 5
-10 10 0 6 5 10 10 10 6 0 10 -4 10 -10z m557 -204 c-44 -30 -83 -68 -125
-123 -54 -70 -102 -142 -102 -154 0 -6 -12 -33 -26 -60 -22 -39 -25 -51 -14
-63 9 -12 106 -71 150 -93 3 -2 5 39 5 90 0 86 3 97 40 175 84 179 267 276
395 210 38 -19 97 -84 87 -94 -2 -2 -21 5 -42 16 -51 26 -154 27 -210 1 -102
-46 -156 -147 -160 -301 -2 -52 -1 -78 2 -57 5 42 13 46 31 17 10 -17 10 -20
-3 -20 -20 0 -19 -17 3 -44 11 -14 26 -21 45 -19 31 2 37 -16 7 -24 -11 -3
-17 -10 -14 -15 3 -5 13 -7 21 -4 11 5 13 2 9 -10 -3 -8 -6 -20 -6 -25 0 -5
-8 -9 -18 -9 -12 0 -26 17 -41 51 -13 27 -25 48 -28 45 -11 -10 36 -94 67
-120 35 -29 78 -51 94 -47 4 1 15 -4 23 -11 35 -29 160 -3 210 44 30 28 58
104 73 198 10 64 10 89 -4 161 -20 106 -21 96 12 113 20 10 30 11 38 2 46 -49
71 -134 77 -255 2 -45 7 -84 10 -87 4 -4 2 -15 -3 -24 -5 -10 -11 -38 -13 -62
-1 -23 -6 -49 -11 -56 -4 -7 -5 -29 -2 -47 9 -46 -11 -74 -101 -146 -53 -42
-92 -64 -139 -79 -90 -27 -118 -26 -132 5 -15 33 -52 34 -52 1 0 -23 -1 -23
-51 -14 -80 14 -102 25 -94 46 14 35 32 112 27 117 -13 13 -24 1 -49 -50 -29
-59 -37 -64 -64 -39 -14 13 -16 26 -12 70 7 66 -10 73 -36 14 l-18 -40 -25 28
c-46 49 -79 104 -72 124 3 11 -8 52 -26 96 -30 69 -32 83 -26 145 15 166 115
330 255 418 54 35 88 39 38 5z m-729 -58 c-7 -19 -38 -22 -38 -4 0 10 9 16 21
16 12 0 19 -5 17 -12z m155 -79 c6 -48 38 -87 102 -126 l50 -29 -3 -50 c-2
-40 -37 -178 -48 -193 -10 -12 -34 27 -34 55 0 27 -7 38 -37 59 -63 42 -103
30 -103 -32 0 -27 7 -37 40 -58 21 -13 45 -22 52 -20 14 5 82 -38 73 -46 -2
-3 -7 -25 -10 -49 -3 -24 -10 -49 -15 -54 -6 -6 -10 -41 -10 -79 l0 -70 -51 7
c-61 8 -89 25 -121 71 -12 19 -30 35 -38 35 -38 0 -91 144 -91 248 0 171 112
369 210 369 26 0 29 -4 34 -38z m901 10 c-3 -5 -10 -7 -15 -3 -5 3 -7 10 -3
15 3 5 10 7 15 3 5 -3 7 -10 3 -15z m-31 -11 c9 2 17 -1 17 -6 0 -15 -37 -21
-49 -9 -15 15 -14 30 2 20 6 -4 20 -6 30 -5z m97 -40 c0 -26 -43 -28 -70 -2
-13 13 -12 17 10 34 23 17 26 17 42 3 10 -9 18 -24 18 -35z m-190 6 c0 -15 -6
-24 -15 -24 -8 0 -15 -4 -15 -10 0 -13 -11 -12 -32 4 -15 11 -16 17 -6 37 9
20 17 24 40 21 22 -3 28 -10 28 -28z m130 -39 c7 -9 21 -13 31 -10 27 9 38
-24 14 -41 -30 -22 -48 -16 -72 21 -13 19 -23 37 -23 40 0 12 39 4 50 -10z
m-194 -12 c-3 -3 1 -12 9 -20 8 -8 15 -20 15 -26 0 -7 -5 -4 -11 6 -8 13 -18
17 -35 13 -27 -7 -29 -4 -12 23 6 11 18 17 25 14 8 -3 12 -8 9 -10z m116 -31
c13 -16 28 -27 34 -25 6 2 18 -5 28 -16 10 -11 24 -17 32 -14 8 3 14 0 14 -6
0 -14 -27 -15 -35 -1 -3 6 -11 10 -17 10 -6 0 -5 -7 3 -16 11 -13 26 -15 72
-11 73 7 78 -3 37 -73 -30 -51 -31 -57 -25 -122 6 -62 5 -68 -11 -68 -11 0
-43 14 -73 30 l-54 30 -53 -40 c-76 -57 -88 -54 -81 18 l6 57 -39 23 c-22 12
-40 29 -40 37 0 7 20 28 44 45 27 20 51 48 62 73 22 51 52 97 64 97 4 0 19
-13 32 -28z m-112 -35 c0 -38 -61 -114 -81 -102 -9 6 -7 12 6 21 17 13 17 15
2 32 -24 26 -22 56 2 49 12 -3 27 3 37 14 20 22 34 16 34 -14z m290 13 c0 -5
-2 -10 -4 -10 -3 0 -8 5 -11 10 -3 6 -1 10 4 10 6 0 11 -4 11 -10z m-385 -96
c4 -40 -3 -56 -20 -41 -7 6 -11 17 -8 23 2 7 0 15 -5 18 -5 3 -7 17 -4 32 4
22 7 24 19 11 8 -8 16 -27 18 -43z m179 -216 c-5 -8 5 -9 34 -5 47 6 55 -7 17
-25 -21 -9 -29 -8 -47 8 -19 17 -21 17 -15 2 4 -10 3 -18 -2 -18 -18 0 -20 15
-4 32 18 20 28 24 17 6z m-64 -64 c0 -9 -36 -2 -54 11 -31 24 -8 38 25 15 16
-12 29 -23 29 -26z m140 -9 c0 -8 -7 -15 -15 -15 -16 0 -20 12 -8 23 11 12 23
8 23 -8z"/>
<path d="M2237 2852 c-21 -22 -27 -38 -27 -74 0 -26 -4 -50 -10 -53 -20 -12
-9 -28 76 -113 47 -48 92 -100 100 -117 8 -16 23 -41 34 -55 33 -43 25 3 -15
82 -34 66 -35 73 -34 173 1 115 -11 157 -49 174 -35 16 -46 14 -75 -17z"/>
<path d="M2292 1253 c3 -19 123 -92 151 -92 38 -2 11 32 -56 70 -75 43 -100
48 -95 22z"/>
<path d="M2650 895 c-15 -45 -8 -68 10 -35 16 30 22 70 10 70 -5 0 -14 -16
-20 -35z"/>
</g>
</svg>
