<?xml version="1.0" encoding="UTF-8"?>
<!-- Generator: Adobe Illustrator 13.0.0, SVG Export Plug-In . SVG Version: 6.00 Build 14948)  -->
<!DOCTYPE svg PUBLIC "-//W3C//DTD SVG 1.1//EN" "http://www.w3.org/Graphics/SVG/1.1/DTD/svg11.dtd">
<svg version="1.1" id="dreamwidthS" xmlns="http://www.w3.org/2000/svg" xmlns:xlink="http://www.w3.org/1999/xlink" x="0px" y="0px" width="75px" height="75px" viewBox="0 0 75 75" enable-background="new 0 0 75 75" xml:space="preserve">
<g id="main_x5F_color" transform="translate(8, 0)">
	<path id="main_x5F_color_piece" fill="#000000" d="M35.469,48.666c0,0-2.375-14-16.5-12.25   C18.969,36.416,36.594,32.166,35.469,48.666z"/>
	<path id="main_x5F_color_swirl" fill="#000000" d="M31.768,40.5c-4.88-7.611-18.585-4.322-24.607,2.422   c-4.816,5.393-4.354,13.679,1.033,18.502c4.312,3.86,10.931,3.49,14.784-0.824c3.083-3.453,2.787-8.756-0.661-11.842   c-2.759-2.471-6.994-2.234-9.463,0.527c-1.973,2.21-1.509,4.559-0.08,6.785l0,0c-2.769-2.582-2.586-6.339-0.125-9.212   c3.075-3.587,8.374-3.88,11.833-0.654c4.324,4.033,4.712,10.939,0.868,15.425c-4.807,5.607-13.084,6.068-18.49,1.025   c-6.755-6.303-7.363-17.092-1.355-24.104c7.509-8.762,20.883-10.03,29.328-2.153c7.773,7.25,9.97,32.893-13.895,33.299   C20.938,69.697,45.782,62.353,31.768,40.5z"/>
	<g>
		<defs>
			<path id="SVGID_3_" d="M37.959,40.541C38.21,30.714,36.287,17.572,30.585,0l19.721,11.313c0,0,3.288,61.227-30.462,58.227     C19.844,69.541,37.263,67.785,37.959,40.541z"/>
		</defs>
		<clipPath id="SVGID_4_">
			<use xlink:href="#SVGID_3_" overflow="visible"/>
		</clipPath>
		<path id="main_x5F_color_stem" clip-path="url(#SVGID_4_)" fill="#000000" d="M18.992,70.545c0,0,35.087-1.131,13.31-69.283    l18.005,10.052c0,0,3.867,62.628-13.11,58.666L18.992,70.545z"/>
	</g>
</g>
</svg>