<svg width="44" height="44" viewBox="0 0 44 44" fill="none" xmlns="http://www.w3.org/2000/svg">
    <path
        d="M41.1653 18.3976C39.2075 20.1749 36.6079 21.2588 33.7552 21.2588C27.6648 21.2588 22.7278 16.3219 22.7278 10.2316C22.7278 7.38207 23.8086 4.78476 25.5828 2.82781C20.9418 1.55961 16.3375 1.91336 11.9082 2.7872C11.0952 3.02694 10.2229 2.96837 9.44904 2.62086C8.72747 2.22885 7.92 2.01956 7.09926 2.01254C4.32465 1.98599 2.05374 4.2147 2.02719 6.98927C1.95534 8.65495 3.44143 10.2363 2.80498 11.8208C-1.62283 31.2154 12.7789 45.6208 32.1808 41.1962C33.7786 40.5613 35.3459 42.0458 37.0124 41.974C37.8316 41.9662 38.6367 41.7577 39.3575 41.3672C41.7978 40.0451 42.7045 36.9941 41.3824 34.5538C41.0349 33.7791 40.9763 32.9061 41.2161 32.0916C42.0891 27.6552 42.4398 23.044 41.1661 18.3983L41.1653 18.3976Z"
        stroke="black" stroke-width="4" stroke-linecap="round" stroke-linejoin="round" />
    <path
        d="M26.1958 34.564C25.8403 34.2973 25.7683 33.7912 26.035 33.4357C26.3017 33.0803 26.8079 33.0082 27.1633 33.2749C27.5187 33.5417 27.5908 34.0479 27.3241 34.4032C27.0573 34.7587 26.5511 34.8308 26.1958 34.564Z"
        fill="black" stroke="black" stroke-width="2" />
    <path
        d="M21.9294 35.3723C21.6627 35.7277 21.1565 35.7998 20.8012 35.5331C20.4457 35.2663 20.3736 34.7602 20.6404 34.4048C20.9071 34.0494 21.4133 33.9774 21.7686 34.244C22.1241 34.5108 22.1961 35.0169 21.9294 35.3723Z"
        fill="black" stroke="black" stroke-width="2" />
    <path
        d="M22.3703 30.1098C22.0148 29.843 21.9427 29.3369 22.2095 28.9815C22.4762 28.6261 22.9824 28.554 23.3378 28.8207C23.6931 29.0875 23.7652 29.5936 23.4986 29.949C23.2318 30.3043 22.7256 30.3764 22.3703 30.1098Z"
        fill="black" stroke="black" stroke-width="2" />
    <path
        d="M16.3218 31.4501C15.9664 31.1834 15.8943 30.6772 16.161 30.3218C16.4278 29.9664 16.934 29.8943 17.2893 30.1611C17.6447 30.4278 17.7168 30.934 17.4501 31.2893C17.1833 31.6447 16.6772 31.7168 16.3218 31.4501Z"
        fill="black" stroke="black" stroke-width="2" />
</svg>
    