<svg viewBox="-5 -5 60 28" xmlns="http://www.w3.org/2000/svg"
    xmlns:xlink="http://www.w3.org/1999/xlink">
    <defs>
        <g id="LLC">
            <path
                d="M15.0442 17.292H1.35922C1.08322 17.292 0.968219 17.177 0.968219 16.901V15.245C0.968219 14.969 1.08322 14.854 1.35922 14.854H3.52122L3.52122 3.62999H1.35922C1.08322 3.62999 0.968219 3.51499 0.968219 3.23899V1.58299C0.968219 1.30699 1.08322 1.19199 1.35922 1.19199H8.21322C8.46622 1.19199 8.60422 1.30699 8.60422 1.58299V3.23899C8.60422 3.51499 8.48922 3.62999 8.19022 3.62999H5.95922V14.854H12.9972L13.6412 11.082C13.6872 10.875 13.7792 10.737 14.1012 10.737H14.9752C15.2972 10.737 15.4122 10.852 15.4122 11.128V16.901C15.4122 17.085 15.3432 17.292 15.0442 17.292ZM30.969 17.292H17.284C17.008 17.292 16.893 17.177 16.893 16.901V15.245C16.893 14.969 17.008 14.854 17.284 14.854H19.446V3.62999H17.284C17.008 3.62999 16.893 3.51499 16.893 3.23899V1.58299C16.893 1.30699 17.008 1.19199 17.284 1.19199H24.138C24.391 1.19199 24.529 1.30699 24.529 1.58299V3.23899C24.529 3.51499 24.414 3.62999 24.115 3.62999H21.884V14.854H28.922L29.566 11.082C29.612 10.875 29.704 10.737 30.026 10.737H30.9C31.222 10.737 31.337 10.852 31.337 11.128V16.901C31.337 17.085 31.268 17.292 30.969 17.292ZM48.3182 11.772V14.555C48.3182 14.693 48.2952 14.854 48.2032 14.946C47.3522 15.958 44.9832 17.568 41.3722 17.568C36.5192 17.568 33.1152 14.67 33.1152 9.21899C33.1152 3.97499 36.4502 0.892991 41.5792 0.892991C45.3512 0.892991 47.5362 2.84799 48.1112 3.42299C48.2952 3.60699 48.3182 3.72199 48.3182 3.83699V7.28699C48.3182 7.42499 48.2492 7.51699 48.1112 7.56299L47.3522 7.81599C47.1682 7.88499 47.0762 7.76999 47.0302 7.65499C46.4552 4.61899 44.2012 3.46899 41.4872 3.46899C38.5432 3.46899 35.5532 5.03299 35.5532 9.17299C35.5532 13.29 38.4282 14.969 41.4182 14.969C44.5462 14.969 46.7312 13.704 47.4212 11.634C47.4672 11.519 47.5362 11.496 47.6282 11.496L48.1572 11.588C48.2722 11.611 48.3182 11.657 48.3182 11.772Z"
                fill="white" />

        </g>
    </defs>
    <!--  -->

    <use
        xlink:href="#LLC"
        stroke="var(--color-neon-glow)"
        filter="url(#glow)"
        stroke-width="var(--glow-strength, 2.4)"
    />
    <use
        xlink:href="#LLC"
        fill="none"
        stroke="var(--color-neon-inner-glow)"
        stroke-width="var(--stroke-strength, 2.2)"
    />
    <use
        xlink:href="#LLC"
        fill="none"
        stroke="var(--color-neon-fill)"
        stroke-width="var(--inner-glow-strength, 1)"
    />
</svg>