<svg width="21" height="20" viewBox="0 0 21 20" fill="none" xmlns="http://www.w3.org/2000/svg">
    <path
        d="M19.6035 8.3789C18.6736 9.17871 17.4387 9.66647 16.0837 9.66647C13.1908 9.66647 10.8457 7.44486 10.8457 4.70422C10.8457 3.42193 11.3591 2.25314 12.2018 1.37251C9.99737 0.801824 7.81033 0.961013 5.70638 1.35424C5.32023 1.46212 4.90589 1.43577 4.5383 1.27939C4.19555 1.10298 3.812 1.0088 3.42215 1.00564C2.10421 0.993694 1.02553 1.99661 1.01291 3.24517C0.978788 3.99473 1.68468 4.70633 1.38237 5.41934C-0.720844 14.1469 6.11997 20.6294 15.3359 18.6383C16.0948 18.3526 16.8393 19.0206 17.6309 18.9883C18.02 18.9848 18.4024 18.891 18.7448 18.7152C19.904 18.1203 20.3346 16.7474 19.7066 15.6492C19.5416 15.3006 19.5138 14.9077 19.6276 14.5412C20.0423 12.5449 20.2085 10.4694 19.6035 8.3789Z"
        fill="#FDFC8C" stroke="#FFC700" stroke-linecap="round" stroke-linejoin="round" />
</svg>
    