<svg viewBox="-8 -5 234 64" xmlns="http://www.w3.org/2000/svg"
    xmlns:xlink="http://www.w3.org/1999/xlink"
    style="--color-neon-glow: #ffbf00; --color-neon-fill: white; --color-neon-inner-glow:#f6d880;">
    <defs>
        <g id="logo">
            <path
                d="M79.5834 43.8C73.5034 43.8 70.2234 40.48 70.2234 34.84C70.2234 27.28 75.1434 21.12 83.0634 21.12C89.1834 21.12 92.3034 24.6 92.3034 30C92.3034 37.24 87.7434 43.8 79.5834 43.8ZM80.3034 38.68C83.9434 38.68 86.1834 34.92 86.1834 30.76C86.1834 27.76 84.7434 26.28 82.3434 26.28C78.6634 26.28 76.3834 29.92 76.3834 34.08C76.3834 37.28 77.9034 38.68 80.3034 38.68Z"
                fill="white" />
            <path
                d="M51.0156 52.76C48.8156 52.76 47.1756 52.3199 45.6956 51.4399L44.4156 45.04C46.6156 46.56 48.1756 47.0799 50.3756 47.0799C53.9356 47.0799 55.7756 45.36 56.6956 41.92L60.7757 26.76C58.1756 27.4 55.7757 28.72 52.2957 31.88L54.1756 24.84C57.1756 22.4 59.8556 21.2 63.1357 21.2C66.0557 21.2 67.2957 22.24 67.2957 24.28C67.2957 24.84 67.1757 25.44 67.0157 26.12L63.0156 41.8C61.0956 49.2 57.4956 52.76 51.0156 52.76Z"
                fill="white" />
            <path
                d="M36.2478 39.44C33.5278 43.2 31.7678 44 29.6878 44C27.2878 44 25.6078 42.44 25.6078 39.16C25.6078 38.16 25.8878 36.72 26.2878 35.16L29.8878 21.48H35.7278L32.3278 34.64C32.0478 35.8 31.8478 36.64 31.8478 37.28C31.8478 37.92 32.0078 38.28 32.5678 38.28C33.1678 38.28 33.6878 37.84 35.6878 35.4L40.9678 28.96L42.9278 21.48H48.9678L45.4478 34.36C44.8878 36.52 44.8078 37 44.8078 37.4C44.8078 38 45.0878 38.24 45.7278 38.24C46.4878 38.24 47.4078 37.88 49.0478 36.44L47.5678 42.2C46.0078 43.32 44.4878 43.8 42.7678 43.8C39.8878 43.8 38.5278 42.28 38.5278 39.76C38.5278 38.76 38.8078 37.44 39.2478 35.64L39.3678 35.2L36.2478 39.44Z"
                fill="white" />
            <path
                d="M17.32 40.6401C16.16 49.4001 12.6 52.7601 6.2 52.7601C4.4 52.7601 2.8 52.3601 1.2 51.5601L0 45.48C1.84 46.6 4.04 47.08 5.68 47.08C9.24 47.08 10.52 45.7601 11.12 41.5201L13.12 27.3601H5.84L7.08 22.6401H13.76L13.88 21.8C14.96 14.2801 19.16 11.8 24.96 11.8C26.64 11.8 28.52 12.12 29.84 12.56L29.28 18.08C27.92 17.68 26.56 17.4001 25 17.4001C21.92 17.4001 20.32 18.72 19.8 22.36L19.76 22.6401H28.08L26.88 27.3601H19.12L17.32 40.6401Z"
                fill="white" />
            <path
                d="M116.387 36.952V39.892C116.387 40.144 116.303 40.354 116.093 40.522C114.539 41.782 111.641 43.504 107.273 43.504C101.015 43.504 96.7735 39.808 96.7735 32.584C96.7735 25.36 101.645 21.58 107.609 21.58C111.179 21.58 113.993 22.798 115.883 24.31C116.093 24.478 116.177 24.688 116.177 24.94V28.51C116.177 28.678 116.051 28.846 115.883 28.888L115.211 29.098C115.001 29.182 114.875 29.056 114.833 28.804C114.329 25.906 111.179 24.52 107.693 24.52C102.527 24.52 99.4195 27.628 99.4195 32.584C99.4195 37.624 102.107 40.564 107.441 40.564C111.557 40.564 114.329 38.884 115.253 36.574C115.295 36.448 115.463 36.406 115.589 36.448L116.177 36.658C116.303 36.7 116.387 36.826 116.387 36.952ZM130.904 43.504C123.092 43.504 120.152 38.38 120.152 32.542C120.152 26.704 123.092 21.58 130.904 21.58C138.716 21.58 141.656 26.704 141.656 32.542C141.656 38.38 138.716 43.504 130.904 43.504ZM139.01 32.542C139.01 28.384 137.288 24.52 130.946 24.52C124.52 24.52 122.798 28.384 122.798 32.542C122.798 36.7 124.52 40.564 130.946 40.564C137.288 40.564 139.01 36.7 139.01 32.542ZM167.801 43H166.373C165.785 43 165.659 42.664 165.533 42.328L163.559 37.582L163.307 37.54C162.299 41.32 158.855 43.504 154.781 43.504C150.161 43.504 145.541 40.018 145.541 32.626C145.541 25.318 150.665 21.58 155.453 21.58C159.401 21.58 162.509 24.142 163.223 26.41H163.517V16.54H157.469C156.881 16.54 156.713 16.33 156.713 15.826V14.314C156.713 13.81 156.965 13.6 157.385 13.6H165.365C165.785 13.6 166.037 13.81 166.037 14.314V36.91L168.263 42.286C168.473 42.748 168.221 43 167.801 43ZM163.685 32.752C163.685 28.426 160.619 24.562 155.621 24.562C150.371 24.562 148.187 29.35 148.187 32.668C148.187 36.91 150.665 40.606 155.705 40.606C159.695 40.606 163.685 36.91 163.685 32.752ZM190.32 37.33V40.27C190.32 40.522 190.236 40.732 190.026 40.9C188.304 42.286 185.658 43.504 182.172 43.504C176.754 43.504 171.504 39.808 171.504 32.416C171.504 25.36 176.124 21.58 181.836 21.58C188.304 21.58 191.244 26.032 191.244 31.03V32.962C191.244 33.256 191.034 33.466 190.74 33.466H174.15C174.444 38.464 178.266 40.564 182.172 40.564C185.28 40.564 188.346 39.22 189.522 36.952C189.564 36.826 189.69 36.826 189.774 36.868L190.152 37.078C190.278 37.162 190.32 37.204 190.32 37.33ZM174.108 30.736H188.766C188.766 26.662 185.784 24.52 181.668 24.52C176.922 24.52 174.57 27.46 174.108 30.736ZM217.512 43H216.084C215.496 43 215.37 42.664 215.244 42.328L213.27 37.582L213.018 37.54C212.01 41.32 208.566 43.504 204.492 43.504C199.872 43.504 195.252 40.018 195.252 32.626C195.252 25.318 200.376 21.58 205.164 21.58C209.112 21.58 212.22 24.142 212.934 26.41H213.228V16.54H207.18C206.592 16.54 206.424 16.33 206.424 15.826V14.314C206.424 13.81 206.676 13.6 207.096 13.6H215.076C215.496 13.6 215.748 13.81 215.748 14.314V36.91L217.974 42.286C218.184 42.748 217.932 43 217.512 43ZM213.396 32.752C213.396 28.426 210.33 24.562 205.332 24.562C200.082 24.562 197.898 29.35 197.898 32.668C197.898 36.91 200.376 40.606 205.416 40.606C209.406 40.606 213.396 36.91 213.396 32.752Z"
                fill="white" />
            <path
                d="M73.9604 12.4144L71.9124 11.4959C70.9896 11.086 70.1875 10.4462 69.5827 9.6376C68.9779 8.82901 68.5908 7.87875 68.4583 6.87775L68.156 4.65374C68.1361 4.57458 68.0931 4.50313 68.0324 4.44847C67.9718 4.39381 67.8963 4.35841 67.8155 4.34675C67.7347 4.3351 67.6523 4.34773 67.5787 4.38304C67.5051 4.41834 67.4437 4.47473 67.4022 4.54503L66.4838 6.59299C66.0739 7.51577 65.434 8.31792 64.6254 8.92269C63.8168 9.52745 62.8666 9.91458 61.8656 10.047L59.6416 10.3494C59.5562 10.3608 59.4769 10.3998 59.4157 10.4604C59.3545 10.521 59.3147 10.6 59.3024 10.6852C59.2901 10.7705 59.306 10.8574 59.3476 10.9328C59.3892 11.0083 59.4542 11.0681 59.5329 11.1032L61.5808 12.0216C62.5036 12.4315 63.3058 13.0714 63.9105 13.88C64.5153 14.6885 64.9024 15.6388 65.0349 16.6398L65.3372 18.8638C65.3487 18.9492 65.3877 19.0285 65.4483 19.0897C65.5089 19.1509 65.5878 19.1907 65.6731 19.203C65.7583 19.2153 65.8452 19.1994 65.9207 19.1578C65.9961 19.1162 66.0559 19.0512 66.091 18.9725L67.0095 16.9246C67.4194 16.0018 68.0592 15.1996 68.8678 14.5949C69.6764 13.9901 70.6266 13.603 71.6276 13.4705L73.8517 13.1682C73.937 13.1567 74.0163 13.1177 74.0775 13.0571C74.1387 12.9965 74.1785 12.9176 74.1908 12.8323C74.2031 12.7471 74.1873 12.6601 74.1457 12.5847C74.1041 12.5093 74.039 12.4495 73.9604 12.4144Z"
                fill="white" />
        </g>
    </defs>
    <!--  -->

    <use
        xlink:href="#logo"
        stroke="var(--color-neon-glow)"
        filter="url(#glow)"
        stroke-width="2.2"
    />
    <use
        xlink:href="#logo"
        fill="none"
        stroke-width="2.2"
        stroke="var(--color-neon-inner-glow)"
    />
    <use
        xlink:href="#logo"
        fill="none"
        stroke="var(--color-neon-fill)"
        stroke-width="1.6"
    />
</svg>