<svg width="500" viewBox="0 0 300 56" xmlns="http://www.w3.org/2000/svg"
    xmlns:xlink="http://www.w3.org/1999/xlink"
    style="--color-neon-glow: #ffbf00; --color-neon-fill: #f6d880; --color-neon-inner-glow: #f6d880;">
    <defs>
        <g id="logo">
            <path
                d="M17.44 40.32C16.28 49.08 12.72 52.44 6.32 52.44C4.52 52.44 2.92 52.04 1.32 51.24L0.12 45.16C1.96 46.28 4.16 46.76 5.8 46.76C9.36 46.76 10.64 45.44 11.24 41.2L13.24 27.04H5.96L7.2 22.32H13.88L14 21.48C15.08 13.96 19.28 11.48 25.08 11.48C26.76 11.48 28.64 11.8 29.96 12.24L29.4 17.76C28.04 17.36 26.68 17.08 25.12 17.08C22.04 17.08 20.44 18.4 19.92 22.04L19.88 22.32H28.2L27 27.04H19.24L17.44 40.32ZM36.3678 39.12C33.6478 42.88 31.8878 43.68 29.8078 43.68C27.4078 43.68 25.7278 42.12 25.7278 38.84C25.7278 37.84 26.0078 36.4 26.4078 34.84L30.0078 21.16H35.8478L32.4478 34.32C32.1678 35.48 31.9678 36.32 31.9678 36.96C31.9678 37.6 32.1278 37.96 32.6878 37.96C33.2878 37.96 33.8078 37.52 35.8078 35.08L41.0878 28.64L43.0478 21.16H49.0878L45.5678 34.04C45.0078 36.2 44.9278 36.68 44.9278 37.08C44.9278 37.68 45.2078 37.92 45.8478 37.92C46.6078 37.92 47.5278 37.56 49.1678 36.12L47.6878 41.88C46.1278 43 44.6078 43.48 42.8878 43.48C40.0078 43.48 38.6478 41.96 38.6478 39.44C38.6478 38.44 38.9278 37.12 39.3678 35.32L39.4878 34.88L36.3678 39.12ZM64.0556 10.68H70.5756L69.0156 16.6H62.5356L64.0556 10.68ZM51.1356 52.44C48.9356 52.44 47.2956 52 45.8156 51.12L44.5356 44.72C46.7356 46.24 48.2956 46.76 50.4956 46.76C54.0556 46.76 55.8956 45.04 56.8156 41.6L60.8956 26.44C58.2956 27.08 55.8956 28.4 52.4156 31.56L54.2956 24.52C57.2956 22.08 59.9756 20.88 63.2556 20.88C66.1756 20.88 67.4156 21.92 67.4156 23.96C67.4156 24.52 67.2956 25.12 67.1356 25.8L63.1356 41.48C61.2156 48.88 57.6156 52.44 51.1356 52.44ZM79.7034 43.48C73.6234 43.48 70.3434 40.16 70.3434 34.52C70.3434 26.96 75.2634 20.8 83.1834 20.8C89.3034 20.8 92.4234 24.28 92.4234 29.68C92.4234 36.92 87.8634 43.48 79.7034 43.48ZM80.4234 38.36C84.0634 38.36 86.3034 34.6 86.3034 30.44C86.3034 27.44 84.8634 25.96 82.4634 25.96C78.7834 25.96 76.5034 29.6 76.5034 33.76C76.5034 36.96 78.0234 38.36 80.4234 38.36Z"
            />
            <path
                d="M117.084 36.952V39.892C117.084 40.144 117 40.354 116.79 40.522C115.236 41.782 112.338 43.504 107.97 43.504C101.712 43.504 97.47 39.808 97.47 32.584C97.47 25.36 102.342 21.58 108.306 21.58C111.876 21.58 114.69 22.798 116.58 24.31C116.79 24.478 116.874 24.688 116.874 24.94V28.51C116.874 28.678 116.748 28.846 116.58 28.888L115.908 29.098C115.698 29.182 115.572 29.056 115.53 28.804C115.026 25.906 111.876 24.52 108.39 24.52C103.224 24.52 100.116 27.628 100.116 32.584C100.116 37.624 102.804 40.564 108.138 40.564C112.254 40.564 115.026 38.884 115.95 36.574C115.992 36.448 116.16 36.406 116.286 36.448L116.874 36.658C117 36.7 117.084 36.826 117.084 36.952ZM131.601 43.504C123.789 43.504 120.849 38.38 120.849 32.542C120.849 26.704 123.789 21.58 131.601 21.58C139.413 21.58 142.353 26.704 142.353 32.542C142.353 38.38 139.413 43.504 131.601 43.504ZM139.707 32.542C139.707 28.384 137.985 24.52 131.643 24.52C125.217 24.52 123.495 28.384 123.495 32.542C123.495 36.7 125.217 40.564 131.643 40.564C137.985 40.564 139.707 36.7 139.707 32.542ZM168.498 43H167.07C166.482 43 166.356 42.664 166.23 42.328L164.256 37.582L164.004 37.54C162.996 41.32 159.552 43.504 155.478 43.504C150.858 43.504 146.238 40.018 146.238 32.626C146.238 25.318 151.362 21.58 156.15 21.58C160.098 21.58 163.206 24.142 163.92 26.41H164.214V16.54H158.166C157.578 16.54 157.41 16.33 157.41 15.826V14.314C157.41 13.81 157.662 13.6 158.082 13.6H166.062C166.482 13.6 166.734 13.81 166.734 14.314V36.91L168.96 42.286C169.17 42.748 168.918 43 168.498 43ZM164.382 32.752C164.382 28.426 161.316 24.562 156.318 24.562C151.068 24.562 148.884 29.35 148.884 32.668C148.884 36.91 151.362 40.606 156.402 40.606C160.392 40.606 164.382 36.91 164.382 32.752ZM191.016 37.33V40.27C191.016 40.522 190.932 40.732 190.722 40.9C189 42.286 186.354 43.504 182.868 43.504C177.45 43.504 172.2 39.808 172.2 32.416C172.2 25.36 176.82 21.58 182.532 21.58C189 21.58 191.94 26.032 191.94 31.03V32.962C191.94 33.256 191.73 33.466 191.436 33.466H174.846C175.14 38.464 178.962 40.564 182.868 40.564C185.976 40.564 189.042 39.22 190.218 36.952C190.26 36.826 190.386 36.826 190.47 36.868L190.848 37.078C190.974 37.162 191.016 37.204 191.016 37.33ZM174.804 30.736H189.462C189.462 26.662 186.48 24.52 182.364 24.52C177.618 24.52 175.266 27.46 174.804 30.736ZM218.209 43H216.781C216.193 43 216.067 42.664 215.941 42.328L213.967 37.582L213.715 37.54C212.707 41.32 209.263 43.504 205.189 43.504C200.569 43.504 195.949 40.018 195.949 32.626C195.949 25.318 201.073 21.58 205.861 21.58C209.809 21.58 212.917 24.142 213.631 26.41H213.925V16.54H207.877C207.289 16.54 207.121 16.33 207.121 15.826V14.314C207.121 13.81 207.373 13.6 207.793 13.6H215.773C216.193 13.6 216.445 13.81 216.445 14.314V36.91L218.671 42.286C218.881 42.748 218.629 43 218.209 43ZM214.093 32.752C214.093 28.426 211.027 24.562 206.029 24.562C200.779 24.562 198.595 29.35 198.595 32.668C198.595 36.91 201.073 40.606 206.113 40.606C210.103 40.606 214.093 36.91 214.093 32.752Z"
            />
        </g>

    </defs>
    <!--  -->
    <use
        xlink:href="#logo"
        fill="var(--color-neon-fill)"
        stroke-width="0"
    />
</svg>